<svg xmlns="http://www.w3.org/2000/svg" width="2720" height="879" fill="none"><g stroke-miterlimit="10" clip-path="url(#a)"><path stroke="url(#b)" d="M2.122 854.928c905.252.357 1810.288-.536 2715.548 0" opacity=".1"/><path stroke="url(#c)" d="M2.122 837.057c905.04 6.255 1810.508-8.399 2715.548 0" opacity=".1"/><path stroke="url(#d)" d="M2.122 819.544c246.944 2.681 493.889-2.502 741.046 1.072 205.151 3.038 410.092-6.791 615.032-5.897 203.66 1.072 407.54-3.217 610.99-1.251 120.08 1.251 239.95 8.757 360.03 9.65 129.62.894 258.82-5.54 388.45-3.753" opacity=".1"/><path stroke="url(#e)" d="M2.122 801.852c128.564 1.43 257.34-4.289 386.116-5.361 117.957-.894 235.701 4.11 353.657 7.148 205.576 5.361 409.245-11.08 614.395-10.901 201.75 0 405.21-7.327 606.96-1.787 123.26 3.396 244.62 17.692 368.3 18.407 128.78.893 257.34-9.65 386.12-7.685" opacity=".1"/><path stroke="url(#f)" d="M2.122 784.518c127.715 1.43 255.218-8.042 382.934-8.935 118.593-.894 236.761 6.791 355.142 11.437 100.56 3.931 202.817 6.076 303.382 1.251 103.53-4.825 206.42-17.692 310.37-18.407 198.79-1.608 403.3-12.331 601.88-2.323 127.5 6.433 250.34 29.129 378.69 29.486 128.14.358 255.22-14.475 383.36-12.688" opacity=".2"/><path stroke="url(#g)" d="M2.122 767.183c126.654.894 252.672-12.509 379.327-13.045 119.23-.537 238.035 9.828 356.84 16.44 100.56 5.54 203.241 8.4 303.801 1.609 103.32-6.97 205.36-24.125 309.11-26.091 96.95-1.966 194.11-.179 291.28-1.966 100.35-1.608 204.51-8.757 304.65-.894 132.17 10.365 257.13 42.711 390.78 42.532 127.08 0 252.68-20.015 379.97-18.585" opacity=".2"/><path stroke="url(#h)" d="M2.122 750.028c125.593.357 249.49-17.692 375.084-17.871 120.078 0 239.308 13.403 358.749 21.981 100.56 7.327 203.454 11.259 304.225 1.787 102.89-9.471 204.09-31.095 307.83-34.49 95.47-3.217 191.58-1.072 287.05-3.217 99.07-2.144 203.66-10.722 302.1 0 137.05 14.833 264.77 58.258 404.57 57.186 126.23-1.072 249.71-26.091 375.94-25.376" opacity=".3"/><path stroke="url(#i)" d="M2.122 733.05c124.321-.357 246.096-23.589 370.417-23.053 121.139.537 240.792 17.335 360.87 28.057 100.985 9.114 203.666 14.118 304.651 2.145 102.47-12.331 202.6-38.422 306.35-43.605 93.77-4.825 188.6-2.144 282.58-4.825 97.81-2.859 202.61-12.688 299.56.894 141.93 19.836 273.47 75.414 419.43 73.091 125.17-1.966 246.3-32.525 371.69-32.704" opacity=".3"/><path stroke="url(#j)" d="M2.122 716.253c123.048-1.251 242.277-29.844 365.537-28.593 121.988 1.251 242.278 21.266 362.992 34.49 101.409 11.08 203.878 17.334 305.079 2.323 102.25-15.19 200.9-46.106 304.86-53.254 91.86-6.255 185.42-3.217 277.71-6.434 96.74-3.395 201.33-14.296 296.8 1.966 146.17 25.019 283.22 93.821 435.33 90.068 124.11-3.038 242.7-39.316 367.24-40.566" opacity=".3"/><path stroke="url(#k)" d="M2.122 699.633c121.775-2.145 238.458-36.277 360.446-34.312 123.048 1.966 243.974 25.555 365.325 41.103 102.045 13.045 203.878 20.729 305.707 2.68 101.84-18.228 199-53.969 303.17-63.262 89.74-8.041 182.24-4.289 272.61-8.22 95.9-4.11 199.85-15.726 294.05 3.217 149.78 30.201 294.04 112.942 451.67 107.58 123.26-4.289 238.67-46.284 362.57-48.786" opacity=".4"/><path stroke="url(#l)" d="M2.122 683.013c120.502-3.038 234.427-42.889 355.354-40.209 124.321 2.681 245.884 30.023 367.659 47.893 102.682 15.012 203.878 24.304 306.135 2.86 101.62-21.266 197.09-62.011 301.68-73.448 87.62-9.472 179.06-5.362 267.52-10.008 95.26-5.004 198.15-16.977 291.29 4.468 152.54 35.205 305.92 132.599 468.22 125.451 122.41-5.361 234.64-53.433 357.69-57.186" opacity=".4"/><path stroke="url(#m)" d="M2.122 666.751c119.229-3.932 230.184-49.323 350.05-45.928 125.382 3.575 247.582 34.312 369.993 54.684 103.318 17.156 203.878 27.878 306.775 3.217 101.19-24.304 195.18-69.874 299.98-83.455 85.5-11.08 175.87-6.613 262.43-11.795 94.83-5.719 196.24-18.049 288.53 5.719 88.04 22.695 170.78 58.615 255 89.531 70.86 25.912 150.63 58.079 229.98 53.612 121.56-6.612 230.39-60.581 353.02-65.407" opacity=".4"/><path stroke="url(#n)" d="M2.122 650.488c117.956-4.825 226.153-55.756 344.959-51.646 126.654 4.289 249.278 38.601 372.326 61.296 104.167 19.122 203.878 31.453 307.193 3.396 100.99-27.342 193.06-77.737 298.5-93.284 83.38-12.331 172.69-7.685 257.34-13.582 94.62-6.612 194.12-18.943 285.77 6.969 91.65 25.913 177.36 65.764 264.77 99.897 71.07 27.878 155.29 65.764 236.54 60.581 121.14-7.863 225.95-67.551 348.36-73.627" opacity=".5"/><path stroke="url(#o)" d="M2.122 634.405c116.895-5.718 222.123-61.832 340.079-57.185 127.716 5.003 251.188 42.71 374.448 67.55 104.803 21.088 203.878 34.848 307.831 3.753 100.56-30.201 190.94-85.242 297.01-102.934 81.47-13.582 169.51-8.578 252.47-15.19 94.62-7.506 191.78-19.658 283.01 8.042 95.04 28.95 183.72 72.375 274.1 110.082 71.07 29.665 159.96 73.27 242.7 67.194 120.71-8.936 221.7-74.163 343.9-81.312" opacity=".5"/><path stroke="url(#p)" d="M2.122 618.501c116.047-6.434 218.304-67.372 335.624-62.19 128.776 5.719 252.673 46.642 376.57 73.448 105.439 22.874 204.09 38.064 308.254 3.932 100.35-33.061 189.03-92.212 295.53-111.87 79.56-14.654 166.75-9.471 248.01-16.798 94.4-8.4 189.66-20.373 280.46 9.114 98.44 31.809 189.66 78.809 283.01 119.554 71.07 31.094 164.42 80.238 248.43 73.269 120.29-9.829 217.67-80.596 339.66-88.638" opacity=".5"/><path stroke="url(#q)" d="M2.122 602.952c115.41-6.79 214.697-72.375 331.593-66.835 129.837 6.076 254.37 50.216 378.267 78.987 105.864 24.662 204.302 41.103 308.678 4.289 100.14-35.562 186.91-98.824 294.26-120.09 77.86-15.369 164.2-10.186 244.18-18.049 94.41-9.293 187.55-21.087 278.14 9.829 101.4 34.49 195.39 84.706 291.28 128.489 70.86 32.346 168.24 86.315 253.52 78.809 120.29-10.722 213.64-86.493 335.84-95.071" opacity=".5"/><path stroke="url(#r)" d="M2.122 587.405c114.986-7.148 211.303-76.664 327.986-70.946 130.686 6.434 255.644 53.255 379.965 83.813 105.863 25.913 204.726 43.783 308.897 4.468 99.92-37.707 185.2-104.9 292.98-127.417 76.37-16.084 162.08-10.544 240.58-18.943 94.19-10.008 185.84-21.623 275.8 10.186 104.16 36.814 200.27 89.889 298.71 136.353 71.07 33.596 171.2 91.676 257.97 83.455 120.29-11.258 210.03-91.855 332.66-100.969" opacity=".5"/><path stroke="url(#s)" d="M2.122 572.036c114.986-7.327 208.121-80.06 325.016-74.163 131.534 6.613 256.916 55.935 381.449 87.745 105.652 27.163 205.576 46.106 309.313 4.825 99.5-39.673 183.52-110.261 292.14-133.851 75.31-16.262 160.17-10.722 237.82-19.657 93.77-10.901 184.15-22.16 273.68 10.365 106.5 38.779 204.51 94.535 305.07 143.143 71.28 34.49 173.54 95.786 261.58 87.208 120.51-11.616 206.85-96.501 329.9-105.615" opacity=".6"/><path stroke="url(#t)" d="M2.122 556.847c115.198-6.969 205.575-82.383 322.895-76.665 132.383 6.434 257.764 57.901 382.51 90.962 105.227 27.878 206.211 47.893 309.533 5.182 99.5-41.102 182.23-114.729 291.28-138.854 74.68-16.441 158.69-10.544 235.7-20.015 93.14-11.437 183.09-22.696 271.98 10.186 108.62 40.209 208.12 98.109 310.17 148.683 71.7 35.562 174.81 98.467 263.91 89.889 120.72-11.616 204.31-100.254 327.78-109.189" opacity=".6"/><path stroke="url(#u)" d="M2.122 541.836c115.622-6.434 203.665-83.634 321.622-78.273 132.807 6.076 258.401 59.151 383.146 93.105 104.591 28.415 207.061 48.966 309.53 5.54 99.29-41.996 180.97-118.482 290.65-142.428 74.25-16.262 158.05-10.186 234.64-20.015 92.07-11.973 182.45-23.411 270.28 9.471 110.11 41.103 210.88 100.79 313.98 152.794 72.35 36.456 174.82 99.717 265.19 91.318 121.14-11.437 202.19-103.292 326.51-111.512" opacity=".6"/><path stroke="url(#v)" d="M2.122 527.003c116.047-6.254 203.029-83.813 321.41-78.63 133.019 5.718 258.401 59.509 383.146 93.999 103.742 28.593 207.485 49.144 309.532 5.719 99.5-42.354 180.75-120.269 291.07-144.037 74.25-15.905 157.63-9.472 234-19.658 91.44-12.152 182.24-23.768 269.65 8.757 110.74 41.281 211.94 102.041 315.47 154.58 72.98 36.992 173.96 99.718 265.4 91.498 121.56-11.08 201.33-104.543 326.08-112.049" opacity=".6"/><path stroke="url(#w)" d="M2.122 512.528c114.774-7.506 205.575-82.205 322.47-76.844 131.959 6.076 256.068 58.616 379.965 92.213 104.166 28.414 206.636 48.786 308.893 5.718 100.77-42.353 185.42-118.839 296.38-142.964 74.04-16.084 157.41-9.829 233.79-19.837 92.28-12.152 182.87-23.589 271.13 9.293 109.47 40.745 209.18 100.433 311.44 152.257 72.34 36.456 174.17 99.539 264.76 90.961 120.93-11.616 203.03-102.041 326.93-110.618" opacity=".6"/><path stroke="url(#x)" d="M2.122 498.052c113.925-8.22 208.545-78.451 324.592-72.912 129.837 6.076 252.036 56.65 374.236 89.353 104.591 28.057 205.363 47 308.04 5.183 103.32-41.996 192-116.874 304.87-141.178 74.46-16.083 158.05-10.007 234.85-20.193 92.92-12.152 183.93-23.59 272.61 9.292 107.35 39.852 205.16 98.11 305.5 148.505 71.5 36.098 172.91 98.109 262.22 89.352 120.51-11.794 205.58-98.288 328.84-107.402" opacity=".6"/><path stroke="url(#y)" d="M2.122 483.935c113.289-8.221 212.364-72.555 327.35-67.193 127.079 6.075 246.521 53.969 366.386 85.421 105.016 27.52 203.878 44.497 307.192 4.289 106.72-41.46 200.28-114.551 315.9-138.855 75.52-15.904 159.54-10.186 237.18-20.372 93.35-12.152 185-24.125 274.1 8.757 104.6 38.421 200.06 94.892 297.87 143.858 70.85 35.562 169.93 95.428 258.19 86.851 120.29-11.616 208.75-93.642 331.38-102.935" opacity=".6"/><path stroke="url(#z)" d="M2.122 469.817c113.076-7.863 216.394-65.048 330.957-59.687 123.684 5.718 239.731 50.752 356.839 80.596 105.44 26.806 202.605 41.281 306.347 3.217 110.955-40.745 210.245-112.049 329.265-135.995 76.79-15.548 161.66-10.187 240.36-20.373 93.35-12.152 186.06-24.661 275.8 7.685 101.41 36.634 193.91 91.14 288.74 138.318 70.22 34.847 165.9 91.676 252.88 83.634 120.3-11.08 212.58-88.281 334.78-97.216" opacity=".7"/><path stroke="url(#A)" d="M2.122 456.057c113.289-6.969 220.638-55.935 334.987-51.11 119.866 5.183 231.882 47.179 345.596 75.057 105.439 25.912 201.332 37.707 305.499 1.787 115.836-39.852 221.486-109.189 344.746-132.779 78.5-15.011 164.21-10.186 244.61-20.551 93.35-11.973 187.54-25.376 277.28 6.434 97.81 34.669 186.91 86.851 278.35 131.885 69.58 34.311 161.02 87.029 246.52 79.702 120.29-10.186 216.61-82.204 338.59-90.425" opacity=".7"/><path stroke="url(#B)" d="M2.122 442.475c114.137-5.718 224.881-45.749 339.443-41.281 115.41 4.646 223.183 43.247 333.29 68.802 105.44 24.661 200.272 33.596 304.651.178 121.564-38.957 233.574-105.436 361.714-129.204 80.41-14.832 167.39-10.007 249.28-20.73 92.93-11.973 189.24-26.269 278.77 4.825 93.98 32.525 179.27 82.205 266.89 124.916 68.95 33.596 155.29 81.668 239.09 75.413 120.51-9.113 220.85-75.592 343.05-82.919" opacity=".7"/><path stroke="url(#C)" d="M2.122 429.072c115.198-4.289 228.911-34.669 344.534-30.737 110.744 3.931 213.849 38.779 319.925 62.189 105.228 23.232 199.635 29.308 303.59-1.429 127.499-37.886 246.519-102.22 379.749-125.452 82.53-14.296 170.79-10.007 254.8-20.729 92.5-11.974 190.72-27.164 280.25 2.859 89.74 30.201 170.99 77.201 254.58 117.409 68.1 32.704 149.15 75.95 231.04 70.589 120.92-8.042 225.51-68.444 347.71-74.699" opacity=".7"/><path stroke="url(#D)" d="M2.122 416.026c116.471-2.501 232.942-23.053 349.626-19.478 105.864 3.216 204.302 34.132 305.923 55.22 104.591 21.623 199.211 25.018 302.529-3.217 133.66-36.635 259.89-99.003 398.85-121.341 84.86-13.761 174.38-10.008 260.31-20.909 92.07-11.794 192.42-28.235 281.73.894 85.29 27.699 162.51 72.018 241.86 109.725 67.04 31.81 142.56 69.874 222.54 65.406 121.57-6.791 229.98-61.117 352.6-66.121" opacity=".7"/><path stroke="url(#E)" d="M2.122 402.981c118.168-.715 236.761-10.901 354.93-8.042 100.56 2.502 194.331 29.487 291.709 48.072 103.742 19.836 198.998 20.73 301.467-5.182 140.022-35.384 273.462-95.787 418.152-117.41 87.19-13.045 178.21-9.829 266.25-20.909 91.65-11.615 193.91-29.129 283.22-1.25 80.62 25.197 153.81 66.835 228.7 101.683 65.98 30.737 135.99 63.619 213.64 60.224 122.41-5.361 234.64-53.612 357.69-57.186" opacity=".7"/><path stroke="url(#F)" d="M2.122 390.293c120.078 1.072 240.156 1.251 360.234 3.395 95.468 1.787 184.572 24.84 277.282 40.924 102.894 17.87 198.999 16.798 300.619-6.97 146.383-34.311 287.043-92.569 437.673-113.299 89.52-12.331 181.81-9.829 272.19-21.087 91.22-11.437 195.39-29.844 284.71-3.396 139.8 41.639 265.4 153.866 420.69 148.862 123.26-4.11 238.89-45.927 362.78-48.429" opacity=".8"/><path stroke="url(#G)" d="M2.122 377.784c121.987 2.859 243.338 13.045 365.325 14.654 90.377 1.251 175.025 20.372 263.281 33.775 101.833 15.548 198.998 12.867 299.558-8.935 152.754-33.061 300.194-89.353 456.764-109.189 91.65-11.616 185.63-9.65 277.92-21.088 91.01-11.258 196.88-30.558 286.19-5.361 135.35 38.243 249.92 139.212 399.06 135.817 124.32-2.86 243.13-38.601 367.87-39.673" opacity=".8"/><path stroke="url(#H)" d="M2.122 365.632c123.896 4.468 246.308 24.304 370.417 25.555 85.285.715 165.903 16.084 249.703 27.163 271.766 35.741 510.648-84.885 773.718-115.98 93.77-11.079 189.03-9.65 283.43-21.266 90.81-11.258 198.15-31.094 287.68-7.327 130.69 34.848 235.49 125.273 378.48 123.486 125.38-1.608 246.95-31.274 372.54-31.274" opacity=".8"/><path stroke="url(#I)" d="M2.122 353.48c125.806 5.897 248.854 35.026 375.084 35.562 80.618.358 157.417 12.152 236.974 20.73 275.373 30.023 522.53-84.528 790.05-113.835 95.68-10.544 192.21-9.651 288.32-21.445 91.01-11.259 199.21-31.452 289.16-8.935 125.6 31.452 222.55 112.405 359.39 111.691 126.44-.537 250.55-24.483 376.99-23.59" opacity=".8"/><path stroke="url(#J)" d="M2.122 341.685c127.715 7.148 251.187 44.498 379.327 44.498 76.375 0 149.992 8.577 225.518 15.011 279.192 23.768 532.713-83.813 804.903-112.049 97.38-10.007 195.18-9.65 292.56-21.444 91.44-11.259 199.85-31.453 290.65-10.365 120.92 27.878 211.09 100.968 341.77 101.147 127.51.179 253.53-18.228 381.03-16.619" opacity=".8"/><path stroke="url(#K)" d="M2.122 330.249c129.412 7.684 252.885 52.539 382.934 52.182 72.556 0 143.414 5.539 215.546 10.007 282.799 17.513 541.408-82.919 818.058-110.261 98.65-9.65 197.3-9.65 296.16-21.624 92.5-11.258 200.06-30.916 292.14-11.437 56.01 11.795 106.71 38.243 158.47 58.794 56.65 22.696 105.66 32.703 168.24 33.061 128.35.893 256.07-12.51 384.63-10.544" opacity=".8"/><path stroke="url(#L)" d="M2.122 318.989c131.109 7.863 253.945 58.973 386.116 58.437 69.374-.179 137.899 3.038 207.273 5.718 285.768 11.259 548.629-81.847 829.089-108.653 99.5-9.471 199-9.828 298.71-21.802 93.14-11.258 200.7-30.737 293.62-12.152 53.04 10.723 101.2 34.848 150.41 53.969 55.16 21.445 103.32 29.844 163.79 30.38 129.2 1.073 258.18-7.684 387.39-5.718" opacity=".8"/><path stroke="url(#M)" d="M2.122 307.91c132.807 7.506 254.582 63.262 388.238 62.904 67.04-.178 133.868 1.251 200.908 2.681 99.287 1.966 196.028-1.251 294.254-16.262 181.178-27.878 359.808-73.806 543.318-91.14 100.14-9.472 200.06-10.008 300.2-21.981 93.77-11.258 201.33-30.559 295.31-12.331 50.92 9.829 96.53 32.525 144.06 50.038 54.31 20.015 101.62 28.057 160.81 28.593 129.83 1.072 259.46-3.753 389.3-2.323" opacity=".9"/><path stroke="url(#N)" d="M2.122 297.009c134.08 6.255 254.794 65.228 389.723 65.406 65.767 0 131.322.358 196.877.715 99.287.536 195.179-1.787 293.406-16.619 183.302-27.521 364.052-72.019 549.262-89.711 100.13-9.471 200.06-10.186 300.19-22.338 94.84-11.437 201.97-30.201 296.8-11.973 49.22 9.471 93.56 30.737 139.6 47.357 53.46 19.3 101.41 27.521 159.75 27.699 130.26.536 260.31-.893 390.57-.357" opacity=".9"/><path stroke="url(#O)" d="M2.122 286.465c134.292 5.719 254.582 65.585 389.723 65.585 65.555 0 131.109.179 196.452.536 99.287.358 195.18-1.787 293.406-16.619 183.507-27.521 364.477-71.84 549.897-89.532 99.92-9.65 200.06-10.544 300.2-22.338 95.25-11.259 201.96-29.844 297.22-11.616 105.02 20.194 186.48 73.627 298.29 74.342 130.26.714 260.52.357 390.78 0" opacity=".9"/><path stroke="url(#P)" d="M2.122 275.742c134.08 6.076 254.794 65.407 389.723 65.049 65.979 0 131.958.536 197.937 1.251 99.287 1.072 195.604-1.787 293.831-16.619 182.447-27.521 362.567-72.376 546.927-89.889 100.14-9.472 200.48-10.544 300.83-21.802 95.47-10.723 201.76-28.951 297.23-11.259 104.59 19.479 188.39 72.376 298.92 73.984 130.26 1.787 260.52 1.43 390.78.358" opacity=".9"/><path stroke="url(#Q)" d="M2.122 265.199c133.655 6.434 255.006 64.87 389.511 64.156 66.827-.358 133.231 1.25 199.847 2.501 99.287 1.787 196.028-1.429 294.254-16.44 181.176-27.7 359.806-72.912 543.106-90.426 100.14-9.471 200.91-10.543 301.26-20.908 95.68-10.008 201.54-27.699 297.22-10.544 104.38 18.586 190.73 70.768 300.2 73.448 130.26 3.217 260.73 2.502 391 .894" opacity=".9"/><path stroke="url(#R)" d="M2.122 254.298c133.443 6.612 255.218 63.798 389.298 63.083 67.677-.357 134.929 1.966 202.605 3.932 99.288 2.859 196.453-.894 294.467-16.084 179.478-27.699 356.418-73.627 538.018-90.961 99.92-9.471 201.12-10.186 301.47-19.658 95.89-9.114 201.54-26.091 297.22-9.65 104.38 17.692 193.27 68.445 301.89 72.376 130.27 4.646 260.74 4.11 391.21 2.144" opacity=".9"/><path stroke="url(#S)" d="M2.122 243.575c133.019 6.791 255.43 62.369 389.298 61.654 68.95-.358 137.051 3.038 205.788 5.897 284.708 11.437 547.562-80.596 826.972-107.402 99.92-9.65 201.33-9.829 301.68-18.228 96.31-8.22 201.33-23.946 297.43-8.578 104.59 16.799 196.03 65.943 304.02 71.125 130.26 6.255 260.94 5.719 391.42 3.574"/><path stroke="url(#T)" d="M1.91 232.853c132.806 6.791 255.43 60.76 389.086 60.045 70.435-.357 139.384 4.289 209.394 8.042 282.799 14.654 543.32-80.775 820.39-107.581 99.71-9.65 201.55-9.114 301.68-16.441 96.74-6.969 201.33-21.623 297.86-7.148 105.02 15.726 198.79 63.083 306.56 69.517 130.26 7.863 261.16 7.684 391.42 5.361"/><path stroke="url(#U)" d="M1.91 222.131c132.594 6.612 255.642 58.615 389.086 58.079 71.92-.357 142.142 5.719 213.637 10.365C885.098 308.803 1143.29 209.8 1417.6 182.637c99.5-9.829 201.54-8.399 301.68-14.475 97.38-5.719 201.33-18.943 298.29-5.54 105.86 14.475 201.96 59.687 309.31 67.729 130.05 9.829 261.16 9.829 391.64 7.506"/><path stroke="url(#V)" d="M1.91 211.588c132.382 6.433 255.855 56.292 388.874 55.935 73.617-.179 145.112 7.327 218.304 13.045 277.919 21.802 533.352-80.775 804.902-108.117 99.29-10.007 201.55-7.505 301.47-12.152 97.8-4.467 201.33-15.904 298.71-3.752 106.71 13.224 204.94 56.113 312.71 65.763 130.05 11.616 261.37 12.152 391.85 9.829"/><path stroke="url(#W)" d="M1.697 201.044c132.171 6.254 256.068 53.611 388.875 53.433 75.738 0 148.506 9.114 223.396 15.904 275.161 25.198 527.412-80.596 795.992-108.295 98.86-10.186 201.55-6.612 301.26-9.65 98.44-3.038 201.33-12.688 299.34-1.787 107.78 11.973 208.12 52.182 316.11 63.619 129.84 13.582 261.37 14.654 392.06 12.509"/><path stroke="url(#X)" d="M1.697 190.5c131.959 5.897 256.28 50.752 388.875 50.931 77.647 0 151.9 11.08 228.699 19.121 272.404 28.593 521.259-80.417 786.659-108.474 98.65-10.365 201.55-5.54 300.83-6.969 98.87-1.43 201.55-9.293 299.99.178 109.25 10.723 211.51 48.072 319.92 61.118 129.62 15.726 261.37 17.334 392.27 15.368"/><path stroke="url(#Y)" d="M1.697 180.314c131.747 5.54 256.492 47.715 388.875 48.251 79.981.357 155.719 13.045 234.428 22.338 269.645 31.988 514.47-80.06 776.69-108.653 98.44-10.722 201.33-4.289 300.41-4.289 99.49 0 201.54-5.718 300.61 2.502 110.54 9.293 214.7 43.604 323.96 58.616 129.41 17.87 261.58 20.193 392.48 18.406"/><path stroke="url(#Z)" d="M1.485 170.128c131.534 5.004 256.916 44.498 388.662 45.391 82.315.536 159.539 15.19 240.369 25.734 266.887 35.205 507.044-79.703 766.294-108.832 98.22-11.08 201.12-3.038 299.98-1.251 99.92 1.787 201.76-2.144 301.47 4.825 112.02 7.863 218.09 38.958 327.99 55.935 129.2 20.015 261.58 23.053 392.69 21.624"/><path stroke="url(#aa)" d="M1.485 160.12c131.322 4.647 257.128 41.103 388.662 42.353 84.649.894 163.782 17.335 246.521 29.308 264.341 38.243 499.402-79.345 755.472-109.01 97.8-11.437 201.12-1.787 299.35 1.787 100.56 3.574 201.97 1.608 302.31 7.148 113.72 6.255 221.49 34.133 332.45 53.254 128.98 22.16 261.58 26.091 392.9 25.019"/><path stroke="url(#ab)" d="M1.273 150.471c131.11 4.11 257.34 37.707 388.662 39.315 86.983 1.072 168.025 19.657 252.885 33.06 261.796 41.103 491.13-78.809 744.44-109.189 97.59-11.794 200.91-.357 298.92 4.825 100.99 5.361 202.18 5.361 303.17 9.65 115.41 4.825 224.88 29.129 336.9 50.395 128.56 24.483 261.58 29.129 393.11 28.415"/><path stroke="url(#ac)" d="M1.273 140.82c130.898 3.574 257.552 34.133 388.662 36.277 89.528 1.43 172.48 22.16 259.25 36.814 99.923 16.977 195.604 14.296 294.679-6.612 146.596-31.095 288.106-83.992 438.306-102.756 97.38-12.152 200.7 1.072 298.29 7.863 101.62 7.148 202.18 9.293 304.01 12.152 116.89 3.395 228.27 24.125 341.35 47.714 128.14 26.806 261.58 32.346 393.33 31.989"/><path stroke="url(#ad)" d="M1.273 131.528c130.685 3.038 257.764 30.38 388.662 33.06 91.862 1.787 176.935 24.483 265.827 40.567 100.135 18.049 195.392 16.44 294.679-5.54 142.779-31.453 280.249-85.243 426.849-104.007 97.17-12.51 200.7 2.502 297.65 11.08 102.04 8.935 202.39 13.045 304.86 14.654 118.59 1.787 231.88 18.942 346.02 44.855 127.93 29.129 261.59 35.383 393.54 35.562"/><path stroke="url(#ae)" d="M1.06 122.593c130.474 2.501 258.19 26.805 388.663 29.843 94.408 2.145 181.39 26.985 272.615 44.498 100.348 19.122 194.968 18.585 294.467-4.289C1095.76 160.836 1229.21 106.33 1372.2 87.209c96.95-13.046 200.48 3.931 297.01 14.118 102.47 10.901 202.61 16.977 305.92 17.334 120.08.357 235.49 13.76 350.69 42.175 127.29 31.452 261.59 38.6 393.76 39.315"/><path stroke="url(#af)" d="M1.06 114.015c130.05 1.787 258.402 23.053 388.663 26.627 96.953 2.68 185.845 29.486 279.192 48.25 100.56 20.194 194.543 20.73 294.467-3.038 135.348-32.167 264.558-87.387 403.938-106.866 96.74-13.403 200.48 5.54 296.38 17.335 102.89 12.688 202.81 20.73 306.77 19.836 121.56-1.251 239.09 8.578 355.35 39.494 126.87 33.775 261.58 41.817 393.97 43.068"/><path stroke="url(#ag)" d="M.849 105.615c129.837 1.251 258.613 19.479 388.45 23.411 99.287 3.038 190.512 31.988 285.769 52.003 100.56 21.266 194.118 22.874 294.254-1.787 131.538-32.524 256.488-88.46 392.478-108.117 96.53-13.939 200.49 6.97 295.96 20.373 103.31 14.475 202.81 24.482 307.83 22.159 123.05-2.681 242.7 3.395 360.02 36.813 126.44 36.099 261.58 45.034 394.18 46.643"/><path stroke="url(#ah)" d="M.849 97.573c129.624.715 259.037 15.905 388.45 20.194 101.833 3.395 194.967 34.312 292.345 55.935 100.56 22.159 193.907 25.197 294.043-.715 127.713-32.882 248.643-89.71 381.023-109.546 96.53-14.476 200.49 8.399 295.32 23.231 103.74 16.262 203.03 28.057 308.68 24.662 124.32-4.111 246.31-1.609 364.48 34.311 125.8 38.243 261.58 48.251 394.39 50.216"/><path stroke="url(#ai)" d="M.636 90.068c128.352.178 256.916 12.866 385.268 16.977 103.743 3.395 198.362 35.383 297.013 58.436 109.258 25.555 207.273 27.878 315.47-2.859 117.743-33.597 230.393-87.208 353.443-106.151 95.47-14.654 198.79 9.293 292.35 25.555 107.35 18.585 208.97 31.809 318.86 27.163 125.17-5.361 247.16-5.004 365.33 33.239 124.11 40.03 259.67 50.395 391.42 52.897"/><path stroke="url(#aj)" d="M.636 82.74c128.14-.178 257.129 9.65 385.056 13.94 106.076 3.574 202.605 37.707 303.165 62.011 109.046 26.269 206.849 30.38 315.043-1.787 114.14-33.955 223.19-88.281 343.05-107.403 95.47-15.19 198.79 10.723 291.92 28.057 107.78 20.194 208.97 35.205 319.72 29.308 126.44-6.791 250.34-9.65 369.57 31.273 123.47 42.354 259.67 53.255 391.63 56.114"/><path stroke="url(#ak)" d="M.636 76.129c127.928-.715 257.129 6.433 385.056 11.08 108.198 3.931 206.848 40.03 309.106 65.585 109.046 27.163 206.636 32.703 314.622-.715 110.95-34.312 215.97-89.353 332.87-108.475 95.25-15.547 198.99 11.974 291.49 30.56 108.2 21.801 209.18 38.421 320.78 31.273 127.71-8.042 253.73-14.118 373.6 29.307 122.83 44.498 259.67 56.293 391.84 59.509"/><path stroke="url(#al)" d="M.424 69.695c127.716-1.072 257.341 3.396 385.056 8.221 110.319 4.289 210.667 42.175 314.834 68.802 108.834 27.878 206.423 35.026 314.196.357 107.77-34.49 209.18-90.425 323.11-109.725 95.25-16.084 199.21 13.045 291.07 32.882 108.62 23.41 209.18 41.281 321.62 33.239 128.78-9.293 256.71-18.228 377.42 27.699 121.99 46.464 259.68 58.973 392.06 62.547"/><path stroke="url(#am)" d="M.424 63.977c127.504-1.43 257.553.536 384.844 5.718 112.228 4.468 214.486 44.32 320.349 72.019 108.41 28.414 206.424 37.171 313.983 1.251 104.59-34.848 202.61-91.319 313.99-110.798 95.25-16.62 199.42 14.118 290.86 35.027 108.83 24.84 209.18 43.961 322.47 35.026 130.05-10.365 259.67-22.16 381.02 26.27 121.35 48.608 259.68 61.653 392.27 65.406"/><path stroke="url(#an)" d="M.212 58.616c127.504-1.608 257.553-2.145 384.844 3.217 114.138 4.646 218.092 46.284 325.441 74.877 108.198 28.951 206.424 39.315 313.563 2.145 101.83-35.205 196.45-92.391 305.07-111.87 95.26-16.977 199.64 15.011 290.65 36.813 109.05 26.091 209.18 46.464 323.32 36.635 131.11-11.259 262.22-25.734 384.21 25.197 120.71 50.574 259.67 64.156 392.48 68.087"/><path stroke="url(#ao)" d="M.212 53.79c127.292-1.786 257.553-4.467 384.632.894 115.835 5.004 221.487 48.072 330.108 77.737 107.774 29.487 206.636 41.281 313.348 3.038 99.08-35.384 190.51-93.284 297.01-112.763 95.26-17.335 200.06 15.726 290.65 38.422 109.26 27.342 209.4 48.608 323.96 37.885 132.38-12.33 264.55-28.95 387.18 24.483 119.86 52.361 259.67 66.657 392.69 70.589"/><path stroke="url(#ap)" d="M0 49.502c127.291-1.966 257.552-6.613 384.632-1.251 117.32 5.003 224.668 49.501 334.351 80.238 107.561 30.023 206.848 42.89 313.347 3.753 96.74-35.562 185-94.178 289.38-113.656 95.25-17.692 200.27 16.262 290.64 39.672 109.48 28.414 209.4 50.216 324.6 39.137 133.44-13.046 266.67-31.81 389.93 24.125 119.23 54.148 259.68 68.802 392.91 72.733"/><path stroke="url(#aq)" d="M0 45.749c127.291-1.966 257.34-8.578 384.419-3.038 118.805 5.183 227.427 50.931 338.383 82.383 107.349 30.38 207.06 44.141 313.138 4.289 94.83-35.562 179.9-94.892 282.58-114.371 95.47-18.05 200.7 16.62 290.86 40.566 109.69 29.129 209.61 51.646 325.02 40.03 134.93-13.76 268.37-34.312 392.06 23.946 118.59 55.757 259.67 70.768 393.12 74.699"/><path stroke="url(#ar)" d="M0 42.711c127.291-1.966 257.34-10.007 384.419-4.646 120.078 5.182 229.973 52.182 341.777 84.349 106.925 30.737 207.485 45.57 313.134 4.825 92.92-35.741 175.24-95.786 276.65-115.087 95.89-18.406 200.91 16.62 291.07 41.281C1716.73 83.277 1816.66 106.152 1932.7 94c136.21-14.297 269.65-36.278 393.97 24.304 117.74 57.364 259.67 72.554 393.33 76.307"/><path stroke="url(#as)" d="M0 40.21c127.291-1.788 257.128-11.26 384.207-5.898 121.139 5.182 231.882 53.254 344.535 85.957 106.5 30.916 207.909 46.642 313.348 5.183 91.23-35.92 171.42-96.501 271.34-115.802 96.32-18.585 201.12 16.441 291.5 41.46 109.68 30.38 209.82 53.254 325.86 40.924 137.69-14.654 270.29-37.707 395.46 25.019 117.1 58.794 259.67 74.162 393.54 77.558"/><path stroke="url(#at)" d="M0 38.422c127.291-1.608 256.916-12.152 384.207-6.791 121.988 5.004 233.58 54.148 346.869 87.387 106.076 31.095 208.545 47.536 313.564 5.361 89.95-36.098 168.02-97.216 267.1-116.337 96.74-18.764 201.33 15.905 292.13 41.28 109.68 30.56 210.03 53.434 326.08 40.924 139.17-15.01 270.7-38.6 396.3 26.27 116.47 60.045 259.67 75.414 393.54 78.452"/><path stroke="url(#au)" d="M0 37.35c127.503-1.072 256.704-12.51 383.995-7.506 122.624 4.825 234.64 54.684 348.354 88.281 105.863 31.273 209.181 48.072 313.771 5.54 89.11-36.278 165.27-97.752 263.71-116.695 97.37-18.764 201.54 15.19 292.98 40.566 109.47 30.559 210.24 53.076 326.29 40.566 140.87-15.011 270.49-38.958 396.93 27.878 115.84 61.296 259.89 76.486 393.76 78.809"/><path stroke="url(#av)" d="M0 36.992c127.503-.714 256.28-12.509 383.783-7.684 122.836 4.647 235.489 55.042 349.414 88.817 105.652 31.273 209.818 48.25 314.193 5.361 88.47-36.277 163.36-98.288 261.38-116.873 98.22-18.765 201.75 13.939 294.04 39.672 109.26 30.38 210.45 52.182 326.29 39.852 69.58-7.327 138.96-18.765 209.39-18.943 73.62-.358 126.02 15.904 187.33 49.144 115.2 62.368 259.89 77.379 393.97 78.988"/></g><defs><linearGradient id="b" x1="1359.89" x2="1359.89" y1="854.752" y2="855.015" gradientUnits="userSpaceOnUse"><stop stop-color="#64DFDF"/><stop offset="1" stop-color="#5E60CE" stop-opacity=".4"/></linearGradient><linearGradient id="c" x1="1359.89" x2="1359.89" y1="834.385" y2="838.66" gradientUnits="userSpaceOnUse"><stop stop-color="#64DFDF"/><stop offset="1" stop-color="#5E60CE" stop-opacity=".4"/></linearGradient><linearGradient id="d" x1="1359.89" x2="1359.89" y1="812.945" y2="823.204" gradientUnits="userSpaceOnUse"><stop stop-color="#64DFDF"/><stop offset="1" stop-color="#5E60CE" stop-opacity=".4"/></linearGradient><linearGradient id="e" x1="1359.89" x2="1359.89" y1="788.88" y2="809.412" gradientUnits="userSpaceOnUse"><stop stop-color="#64DFDF"/><stop offset="1" stop-color="#5E60CE" stop-opacity=".4"/></linearGradient><linearGradient id="f" x1="1360" x2="1360" y1="763.321" y2="797.034" gradientUnits="userSpaceOnUse"><stop stop-color="#64DFDF"/><stop offset="1" stop-color="#5E60CE" stop-opacity=".4"/></linearGradient><linearGradient id="g" x1="1360" x2="1360" y1="739.614" y2="785.769" gradientUnits="userSpaceOnUse"><stop stop-color="#64DFDF"/><stop offset="1" stop-color="#5E60CE" stop-opacity=".4"/></linearGradient><linearGradient id="h" x1="1359.89" x2="1359.89" y1="712.939" y2="775.424" gradientUnits="userSpaceOnUse"><stop stop-color="#64DFDF"/><stop offset="1" stop-color="#5E60CE" stop-opacity=".4"/></linearGradient><linearGradient id="i" x1="1359.89" x2="1359.89" y1="685.652" y2="765.824" gradientUnits="userSpaceOnUse"><stop stop-color="#64DFDF"/><stop offset="1" stop-color="#5E60CE" stop-opacity=".4"/></linearGradient><linearGradient id="j" x1="1359.89" x2="1359.89" y1="658.056" y2="756.966" gradientUnits="userSpaceOnUse"><stop stop-color="#64DFDF"/><stop offset="1" stop-color="#5E60CE" stop-opacity=".4"/></linearGradient><linearGradient id="k" x1="1359.89" x2="1359.89" y1="630.322" y2="748.668" gradientUnits="userSpaceOnUse"><stop stop-color="#64DFDF"/><stop offset="1" stop-color="#5E60CE" stop-opacity=".4"/></linearGradient><linearGradient id="l" x1="1359.89" x2="1359.89" y1="602.229" y2="740.394" gradientUnits="userSpaceOnUse"><stop stop-color="#64DFDF"/><stop offset="1" stop-color="#5E60CE" stop-opacity=".4"/></linearGradient><linearGradient id="m" x1="1360" x2="1360" y1="575.144" y2="732.755" gradientUnits="userSpaceOnUse"><stop stop-color="#64DFDF"/><stop offset="1" stop-color="#5E60CE" stop-opacity=".4"/></linearGradient><linearGradient id="n" x1="1360" x2="1360" y1="547.876" y2="724.595" gradientUnits="userSpaceOnUse"><stop stop-color="#64DFDF"/><stop offset="1" stop-color="#5E60CE" stop-opacity=".4"/></linearGradient><linearGradient id="o" x1="1359.89" x2="1359.89" y1="521.174" y2="716.289" gradientUnits="userSpaceOnUse"><stop stop-color="#64DFDF"/><stop offset="1" stop-color="#5E60CE" stop-opacity=".4"/></linearGradient><linearGradient id="p" x1="1359.89" x2="1359.89" y1="495.353" y2="707.628" gradientUnits="userSpaceOnUse"><stop stop-color="#64DFDF"/><stop offset="1" stop-color="#5E60CE" stop-opacity=".4"/></linearGradient><linearGradient id="q" x1="1360" x2="1360" y1="471.081" y2="699.089" gradientUnits="userSpaceOnUse"><stop stop-color="#64DFDF"/><stop offset="1" stop-color="#5E60CE" stop-opacity=".4"/></linearGradient><linearGradient id="r" x1="1359.89" x2="1359.89" y1="447.787" y2="689.162" gradientUnits="userSpaceOnUse"><stop stop-color="#64DFDF"/><stop offset="1" stop-color="#5E60CE" stop-opacity=".4"/></linearGradient><linearGradient id="s" x1="1360.11" x2="1360.11" y1="425.831" y2="678.465" gradientUnits="userSpaceOnUse"><stop stop-color="#64DFDF"/><stop offset="1" stop-color="#5E60CE" stop-opacity=".4"/></linearGradient><linearGradient id="t" x1="1360" x2="1360" y1="405.928" y2="667.01" gradientUnits="userSpaceOnUse"><stop stop-color="#64DFDF"/><stop offset="1" stop-color="#5E60CE" stop-opacity=".4"/></linearGradient><linearGradient id="u" x1="1359.89" x2="1359.89" y1="387.672" y2="654.108" gradientUnits="userSpaceOnUse"><stop stop-color="#64DFDF"/><stop offset="1" stop-color="#5E60CE" stop-opacity=".4"/></linearGradient><linearGradient id="v" x1="1360" x2="1360" y1="372.004" y2="639.965" gradientUnits="userSpaceOnUse"><stop stop-color="#64DFDF"/><stop offset="1" stop-color="#5E60CE" stop-opacity=".4"/></linearGradient><linearGradient id="w" x1="1360" x2="1360" y1="358.563" y2="624.118" gradientUnits="userSpaceOnUse"><stop stop-color="#64DFDF"/><stop offset="1" stop-color="#5E60CE" stop-opacity=".4"/></linearGradient><linearGradient id="x" x1="1360" x2="1360" y1="346.054" y2="606.292" gradientUnits="userSpaceOnUse"><stop stop-color="#64DFDF"/><stop offset="1" stop-color="#5E60CE" stop-opacity=".4"/></linearGradient><linearGradient id="y" x1="1359.89" x2="1359.89" y1="334.694" y2="587.521" gradientUnits="userSpaceOnUse"><stop stop-color="#64DFDF"/><stop offset="1" stop-color="#5E60CE" stop-opacity=".4"/></linearGradient><linearGradient id="z" x1="1360.11" x2="1360.11" y1="324.683" y2="567.982" gradientUnits="userSpaceOnUse"><stop stop-color="#64DFDF"/><stop offset="1" stop-color="#5E60CE" stop-opacity=".4"/></linearGradient><linearGradient id="A" x1="1360.21" x2="1360.21" y1="315.158" y2="547.172" gradientUnits="userSpaceOnUse"><stop stop-color="#64DFDF"/><stop offset="1" stop-color="#5E60CE" stop-opacity=".4"/></linearGradient><linearGradient id="B" x1="1360.21" x2="1360.21" y1="306.314" y2="525.948" gradientUnits="userSpaceOnUse"><stop stop-color="#64DFDF"/><stop offset="1" stop-color="#5E60CE" stop-opacity=".4"/></linearGradient><linearGradient id="C" x1="1360.21" x2="1360.21" y1="298.272" y2="504.225" gradientUnits="userSpaceOnUse"><stop stop-color="#64DFDF"/><stop offset="1" stop-color="#5E60CE" stop-opacity=".4"/></linearGradient><linearGradient id="D" x1="1360.11" x2="1360.11" y1="290.885" y2="482.686" gradientUnits="userSpaceOnUse"><stop stop-color="#64DFDF"/><stop offset="1" stop-color="#5E60CE" stop-opacity=".4"/></linearGradient><linearGradient id="E" x1="1360" x2="1360" y1="283.31" y2="460.409" gradientUnits="userSpaceOnUse"><stop stop-color="#64DFDF"/><stop offset="1" stop-color="#5E60CE" stop-opacity=".4"/></linearGradient><linearGradient id="F" x1="1360.21" x2="1360.21" y1="276.296" y2="446.888" gradientUnits="userSpaceOnUse"><stop stop-color="#64DFDF"/><stop offset="1" stop-color="#5E60CE" stop-opacity=".4"/></linearGradient><linearGradient id="G" x1="1360.11" x2="1360.11" y1="269.276" y2="436.091" gradientUnits="userSpaceOnUse"><stop stop-color="#64DFDF"/><stop offset="1" stop-color="#5E60CE" stop-opacity=".4"/></linearGradient><linearGradient id="H" x1="1360.11" x2="1360.11" y1="262.604" y2="424.905" gradientUnits="userSpaceOnUse"><stop stop-color="#64DFDF"/><stop offset="1" stop-color="#5E60CE" stop-opacity=".4"/></linearGradient><linearGradient id="I" x1="1360.11" x2="1360.11" y1="255.362" y2="414.744" gradientUnits="userSpaceOnUse"><stop stop-color="#64DFDF"/><stop offset="1" stop-color="#5E60CE" stop-opacity=".4"/></linearGradient><linearGradient id="J" x1="1360" x2="1360" y1="248.127" y2="404.595" gradientUnits="userSpaceOnUse"><stop stop-color="#64DFDF"/><stop offset="1" stop-color="#5E60CE" stop-opacity=".4"/></linearGradient><linearGradient id="K" x1="1360.21" x2="1360.21" y1="240.866" y2="394.475" gradientUnits="userSpaceOnUse"><stop stop-color="#64DFDF"/><stop offset="1" stop-color="#5E60CE" stop-opacity=".4"/></linearGradient><linearGradient id="L" x1="1360.32" x2="1360.32" y1="232.838" y2="384.084" gradientUnits="userSpaceOnUse"><stop stop-color="#64DFDF"/><stop offset="1" stop-color="#5E60CE" stop-opacity=".4"/></linearGradient><linearGradient id="M" x1="1360.32" x2="1360.32" y1="224.277" y2="374.016" gradientUnits="userSpaceOnUse"><stop stop-color="#64DFDF"/><stop offset="1" stop-color="#5E60CE" stop-opacity=".4"/></linearGradient><linearGradient id="N" x1="1360.21" x2="1360.21" y1="214.875" y2="363.199" gradientUnits="userSpaceOnUse"><stop stop-color="#64DFDF"/><stop offset="1" stop-color="#5E60CE" stop-opacity=".4"/></linearGradient><linearGradient id="O" x1="1360.11" x2="1360.11" y1="204.823" y2="352.621" gradientUnits="userSpaceOnUse"><stop stop-color="#64DFDF"/><stop offset="1" stop-color="#5E60CE" stop-opacity=".4"/></linearGradient><linearGradient id="P" x1="1360.21" x2="1360.21" y1="195.076" y2="342.244" gradientUnits="userSpaceOnUse"><stop stop-color="#64DFDF"/><stop offset="1" stop-color="#5E60CE" stop-opacity=".4"/></linearGradient><linearGradient id="Q" x1="1360.32" x2="1360.32" y1="186.358" y2="332.302" gradientUnits="userSpaceOnUse"><stop stop-color="#64DFDF"/><stop offset="1" stop-color="#5E60CE" stop-opacity=".4"/></linearGradient><linearGradient id="R" x1="1360.21" x2="1360.21" y1="178.071" y2="322.196" gradientUnits="userSpaceOnUse"><stop stop-color="#64DFDF"/><stop offset="1" stop-color="#5E60CE" stop-opacity=".4"/></linearGradient><linearGradient id="S" x1="1360.42" x2="1360.42" y1="170.438" y2="312.105" gradientUnits="userSpaceOnUse"><stop stop-color="#64DFDF"/><stop offset="1" stop-color="#5E60CE" stop-opacity=".4"/></linearGradient><linearGradient id="T" x1="1360.11" x2="1360.11" y1="163.609" y2="302.461" gradientUnits="userSpaceOnUse"><stop stop-color="#64DFDF"/><stop offset="1" stop-color="#5E60CE" stop-opacity=".4"/></linearGradient><linearGradient id="U" x1="1360.21" x2="1360.21" y1="156.815" y2="292.799" gradientUnits="userSpaceOnUse"><stop stop-color="#64DFDF"/><stop offset="1" stop-color="#5E60CE" stop-opacity=".4"/></linearGradient><linearGradient id="V" x1="1360.32" x2="1360.32" y1="151.124" y2="283.585" gradientUnits="userSpaceOnUse"><stop stop-color="#64DFDF"/><stop offset="1" stop-color="#5E60CE" stop-opacity=".4"/></linearGradient><linearGradient id="W" x1="1360.21" x2="1360.21" y1="145.589" y2="274.228" gradientUnits="userSpaceOnUse"><stop stop-color="#64DFDF"/><stop offset="1" stop-color="#5E60CE" stop-opacity=".4"/></linearGradient><linearGradient id="X" x1="1360.32" x2="1360.32" y1="140.688" y2="265.29" gradientUnits="userSpaceOnUse"><stop stop-color="#64DFDF"/><stop offset="1" stop-color="#5E60CE" stop-opacity=".4"/></linearGradient><linearGradient id="Y" x1="1360.42" x2="1360.42" y1="136.025" y2="256.593" gradientUnits="userSpaceOnUse"><stop stop-color="#64DFDF"/><stop offset="1" stop-color="#5E60CE" stop-opacity=".4"/></linearGradient><linearGradient id="Z" x1="1360.21" x2="1360.21" y1="126.678" y2="247.891" gradientUnits="userSpaceOnUse"><stop stop-color="#64DFDF"/><stop offset="1" stop-color="#5E60CE" stop-opacity=".4"/></linearGradient><linearGradient id="aa" x1="1360.32" x2="1360.32" y1="117.347" y2="239.352" gradientUnits="userSpaceOnUse"><stop stop-color="#64DFDF"/><stop offset="1" stop-color="#5E60CE" stop-opacity=".4"/></linearGradient><linearGradient id="ab" x1="1360.32" x2="1360.32" y1="108.505" y2="231.334" gradientUnits="userSpaceOnUse"><stop stop-color="#64DFDF"/><stop offset="1" stop-color="#5E60CE" stop-opacity=".4"/></linearGradient><linearGradient id="ac" x1="1360.21" x2="1360.21" y1="99.597" y2="225.025" gradientUnits="userSpaceOnUse"><stop stop-color="#64DFDF"/><stop offset="1" stop-color="#5E60CE" stop-opacity=".4"/></linearGradient><linearGradient id="ad" x1="1360.32" x2="1360.32" y1="90.825" y2="217.516" gradientUnits="userSpaceOnUse"><stop stop-color="#64DFDF"/><stop offset="1" stop-color="#5E60CE" stop-opacity=".4"/></linearGradient><linearGradient id="ae" x1="1360.32" x2="1360.32" y1="82.475" y2="210.59" gradientUnits="userSpaceOnUse"><stop stop-color="#64DFDF"/><stop offset="1" stop-color="#5E60CE" stop-opacity=".4"/></linearGradient><linearGradient id="af" x1="1360.42" x2="1360.42" y1="74.381" y2="203.872" gradientUnits="userSpaceOnUse"><stop stop-color="#64DFDF"/><stop offset="1" stop-color="#5E60CE" stop-opacity=".4"/></linearGradient><linearGradient id="ag" x1="1360.32" x2="1360.32" y1="66.522" y2="197.358" gradientUnits="userSpaceOnUse"><stop stop-color="#64DFDF"/><stop offset="1" stop-color="#5E60CE" stop-opacity=".4"/></linearGradient><linearGradient id="ah" x1="1360.21" x2="1360.21" y1="58.825" y2="195.861" gradientUnits="userSpaceOnUse"><stop stop-color="#64DFDF"/><stop offset="1" stop-color="#5E60CE" stop-opacity=".4"/></linearGradient><linearGradient id="ai" x1="1360.21" x2="1360.21" y1="51.911" y2="195.325" gradientUnits="userSpaceOnUse"><stop stop-color="#64DFDF"/><stop offset="1" stop-color="#5E60CE" stop-opacity=".4"/></linearGradient><linearGradient id="aj" x1="1360.21" x2="1360.21" y1="44.909" y2="194.253" gradientUnits="userSpaceOnUse"><stop stop-color="#64DFDF"/><stop offset="1" stop-color="#5E60CE" stop-opacity=".4"/></linearGradient><linearGradient id="ak" x1="1360.32" x2="1360.32" y1="39.024" y2="194.253" gradientUnits="userSpaceOnUse"><stop stop-color="#64DFDF"/><stop offset="1" stop-color="#5E60CE" stop-opacity=".4"/></linearGradient><linearGradient id="al" x1="1360.11" x2="1360.11" y1="32.688" y2="193.717" gradientUnits="userSpaceOnUse"><stop stop-color="#64DFDF"/><stop offset="1" stop-color="#5E60CE" stop-opacity=".4"/></linearGradient><linearGradient id="am" x1="1360.32" x2="1360.32" y1="27.421" y2="193.896" gradientUnits="userSpaceOnUse"><stop stop-color="#64DFDF"/><stop offset="1" stop-color="#5E60CE" stop-opacity=".4"/></linearGradient><linearGradient id="an" x1="1360" x2="1360" y1="22.2" y2="193.717" gradientUnits="userSpaceOnUse"><stop stop-color="#64DFDF"/><stop offset="1" stop-color="#5E60CE" stop-opacity=".4"/></linearGradient><linearGradient id="ao" x1="1360" x2="1360" y1="17.854" y2="194.075" gradientUnits="userSpaceOnUse"><stop stop-color="#64DFDF"/><stop offset="1" stop-color="#5E60CE" stop-opacity=".4"/></linearGradient><linearGradient id="ap" x1="1359.89" x2="1359.89" y1="13.666" y2="194.253" gradientUnits="userSpaceOnUse"><stop stop-color="#64DFDF"/><stop offset="1" stop-color="#5E60CE" stop-opacity=".4"/></linearGradient><linearGradient id="aq" x1="1359.79" x2="1359.79" y1="9.996" y2="194.253" gradientUnits="userSpaceOnUse"><stop stop-color="#64DFDF"/><stop offset="1" stop-color="#5E60CE" stop-opacity=".4"/></linearGradient><linearGradient id="ar" x1="1360" x2="1360" y1="7.007" y2="194.611" gradientUnits="userSpaceOnUse"><stop stop-color="#64DFDF"/><stop offset="1" stop-color="#5E60CE" stop-opacity=".4"/></linearGradient><linearGradient id="as" x1="1359.89" x2="1359.89" y1="4.422" y2="194.611" gradientUnits="userSpaceOnUse"><stop stop-color="#64DFDF"/><stop offset="1" stop-color="#5E60CE" stop-opacity=".4"/></linearGradient><linearGradient id="at" x1="1359.89" x2="1359.89" y1="2.693" y2="194.968" gradientUnits="userSpaceOnUse"><stop stop-color="#64DFDF"/><stop offset="1" stop-color="#5E60CE" stop-opacity=".4"/></linearGradient><linearGradient id="au" x1="1359.89" x2="1359.89" y1="1.547" y2="194.789" gradientUnits="userSpaceOnUse"><stop stop-color="#64DFDF"/><stop offset="1" stop-color="#5E60CE" stop-opacity=".4"/></linearGradient><linearGradient id="av" x1="1359.89" x2="1359.89" y1="1.058" y2="195.326" gradientUnits="userSpaceOnUse"><stop stop-color="#64DFDF"/><stop offset="1" stop-color="#5E60CE" stop-opacity=".4"/></linearGradient><clipPath id="a"><path fill="#fff" d="M0 0h2720v856H0z"/></clipPath></defs></svg>